<svg width="308" height="346" viewBox="0 0 308 346" fill="none" xmlns="http://www.w3.org/2000/svg">
<g filter="url(#filter0_f_30_6)">
<path d="M250.304 187.04L266.104 214.406C268.277 218.169 266.954 223.038 263.165 225.225L125.389 304.771C121.6 306.958 116.723 305.669 114.55 301.906L98.7498 274.54C82.9894 247.242 83.779 215.041 98.0619 189.189C113.716 191.006 130.159 187.99 144.902 179.478C159.644 170.967 170.479 158.234 176.732 143.769C183.676 143.864 190.671 144.843 197.391 146.619C218.961 152.319 238.297 166.242 250.304 187.04Z" fill="#B2B2CC"/>
<path d="M138.977 169.215C169.414 151.642 179.94 112.892 162.488 82.6642C145.036 52.4363 106.214 42.1772 75.7775 59.7498C45.3409 77.3224 34.8148 116.072 52.2669 146.3C69.719 176.528 108.54 186.787 138.977 169.215Z" fill="#B2B2CC"/>
</g>
<path d="M250.304 171.04L266.104 198.406C268.277 202.169 266.954 207.038 263.165 209.225L125.389 288.771C121.6 290.958 116.723 289.669 114.55 285.906L98.7498 258.54C82.9894 231.242 83.779 199.041 98.0619 173.189C113.716 175.006 130.159 171.99 144.902 163.478C159.644 154.967 170.479 142.234 176.732 127.769C183.676 127.864 190.671 128.843 197.391 130.619C218.961 136.319 238.297 150.242 250.304 171.04Z" fill="#B2B2CC"/>
<path d="M250.304 171.04L266.104 198.406C268.277 202.169 266.954 207.038 263.165 209.225L125.389 288.771C121.6 290.958 116.723 289.669 114.55 285.906L98.7498 258.54C82.9894 231.242 83.779 199.041 98.0619 173.189C113.716 175.006 130.159 171.99 144.902 163.478C159.644 154.967 170.479 142.234 176.732 127.769C183.676 127.864 190.671 128.843 197.391 130.619C218.961 136.319 238.297 150.242 250.304 171.04Z" fill="url(#paint0_linear_30_6)"/>
<path d="M138.977 153.215C169.414 135.642 179.94 96.8921 162.488 66.6642C145.036 36.4363 106.214 26.1772 75.7775 43.7498C45.3409 61.3224 34.8148 100.072 52.2669 130.3C69.719 160.528 108.54 170.787 138.977 153.215Z" fill="#B2B2CC"/>
<path d="M138.977 153.215C169.414 135.642 179.94 96.8921 162.488 66.6642C145.036 36.4363 106.214 26.1772 75.7775 43.7498C45.3409 61.3224 34.8148 100.072 52.2669 130.3C69.719 160.528 108.54 170.787 138.977 153.215Z" fill="url(#paint1_linear_30_6)"/>
<defs>
<filter id="filter0_f_30_6" x="3.83936" y="11.1629" width="303.311" height="334.674" filterUnits="userSpaceOnUse" color-interpolation-filters="sRGB">
<feFlood flood-opacity="0" result="BackgroundImageFix"/>
<feBlend mode="normal" in="SourceGraphic" in2="BackgroundImageFix" result="shape"/>
<feGaussianBlur stdDeviation="20" result="effect1_foregroundBlur_30_6"/>
</filter>
<linearGradient id="paint0_linear_30_6" x1="93.6056" y1="96.5159" x2="167.391" y2="77.4492" gradientUnits="userSpaceOnUse">
<stop stop-color="#DADAEA"/>
<stop offset="0.947267" stop-color="#F4F4FC"/>
</linearGradient>
<linearGradient id="paint1_linear_30_6" x1="93.6056" y1="96.5159" x2="167.391" y2="77.4492" gradientUnits="userSpaceOnUse">
<stop stop-color="#DADAEA"/>
<stop offset="0.947267" stop-color="#F4F4FC"/>
</linearGradient>
</defs>
</svg>
