<svg width="61" height="61" viewBox="0 0 61 61" fill="none" xmlns="http://www.w3.org/2000/svg">
<path fill-rule="evenodd" clip-rule="evenodd" d="M58.8642 58.3289C57.9338 59.2302 56.6432 59.6577 55.3595 59.4895L12.7191 60.0231C11.5932 60.0368 10.5081 59.6027 9.70223 58.8159C8.89686 58.0298 8.4362 56.9551 8.4227 55.8293C8.40905 54.7034 8.84311 53.6184 9.62993 52.8124C10.4166 52.0065 11.4907 51.5465 12.6165 51.5329L45.7476 51.12L1.93812 7.3105C1.12375 6.51918 0.660499 5.43308 0.65245 4.29773C0.644402 3.16129 1.0921 2.06973 1.89529 1.26641C2.69862 0.463081 3.79072 0.0149689 4.92675 0.0235596C6.06251 0.0310631 7.14821 0.494724 7.93994 1.30855L51.7496 45.1182L52.1623 11.9871C52.176 10.8611 52.6362 9.78704 53.442 9.00036C54.2477 8.21368 55.3324 7.77908 56.4587 7.79313C57.5845 7.80677 58.6592 8.26648 59.4455 9.07266C60.2321 9.87858 60.6662 10.9637 60.6521 12.0901L60.1197 54.7523C60.286 56.0751 59.8218 57.3994 58.8653 58.3278L58.8642 58.3289Z" fill="#0099CC"/>
</svg>
